<svg width="119" height="40" viewBox="0 0 119 40" fill="none" xmlns="http://www.w3.org/2000/svg">
<path d="M8.20621 9.4103C9.41731 8.76205 10.8023 8.4364 12.3581 8.4364C14.1702 8.4364 15.8084 8.88074 17.2727 9.77247C18.74 10.6642 19.8993 11.9272 20.7535 13.5707C21.6076 15.2111 22.0347 17.1133 22.0347 19.2772C22.0347 21.4411 21.6076 23.3554 20.7535 25.0202C19.8993 26.688 18.737 27.9784 17.2727 28.8945C15.8053 29.8105 14.1672 30.2671 12.3581 30.2671C10.8023 30.2671 9.43256 29.9475 8.24587 29.3145C7.05917 28.6814 6.09822 27.8779 5.35691 26.9101V40H0V8.78031H5.35691V11.8329C6.04331 10.8681 6.99511 10.0586 8.20621 9.4103ZM15.7809 15.975C15.2593 15.0468 14.5698 14.3407 13.7157 13.8568C12.8615 13.3729 11.9371 13.1324 10.9426 13.1324C9.97252 13.1324 9.06039 13.379 8.20621 13.8781C7.35203 14.3742 6.66259 15.0924 6.14093 16.0328C5.61927 16.9733 5.35691 18.0811 5.35691 19.3532C5.35691 20.6254 5.61927 21.7332 6.14093 22.6736C6.66259 23.6141 7.35203 24.3354 8.20621 24.8284C9.06039 25.3245 9.97252 25.5741 10.9426 25.5741C11.9371 25.5741 12.8615 25.3215 13.7157 24.8102C14.5698 24.3019 15.2593 23.5776 15.7809 22.6341C16.3026 21.6937 16.5649 20.5737 16.5649 19.2741C16.5649 18.005 16.3026 16.9033 15.7809 15.975Z" fill="#2B375F"/>
<path d="M45.488 20.9572H29.9938C30.122 22.4851 30.6558 23.6811 31.6015 24.5455C32.5442 25.4098 33.7065 25.842 35.0823 25.842C37.0713 25.842 38.4868 24.9898 39.3288 23.2855H45.1067C44.4935 25.3216 43.3221 26.9954 41.5863 28.3041C39.8505 29.6159 37.7211 30.2702 35.1982 30.2702C33.1574 30.2702 31.327 29.8198 29.7071 28.9159C28.0872 28.012 26.8242 26.7337 25.9182 25.0811C25.0122 23.4285 24.5607 21.5203 24.5607 19.3564C24.5607 17.1682 25.0061 15.2477 25.8999 13.5921C26.7937 11.9395 28.0414 10.6673 29.6491 9.77562C31.2568 8.88389 33.1055 8.43954 35.1952 8.43954C37.2086 8.43954 39.0146 8.87171 40.6101 9.73605C42.2025 10.6004 43.441 11.8299 44.3196 13.4186C45.1982 15.0104 45.6406 16.8334 45.6406 18.8968C45.6406 19.6577 45.5887 20.3455 45.488 20.9572ZM40.0915 17.369C40.067 15.9964 39.5698 14.8947 38.5997 14.0669C37.6296 13.2391 36.4429 12.8252 35.0426 12.8252C33.7156 12.8252 32.5991 13.2269 31.6961 14.0273C30.7901 14.8277 30.2348 15.9416 30.0305 17.366H40.0915V17.369Z" fill="#2B375F"/>
<path d="M55.7778 13.169V23.398C55.7778 24.1102 55.9486 24.6245 56.2933 24.9441C56.6381 25.2636 57.2177 25.4219 58.0353 25.4219H60.5215V29.9262H57.1536C52.6387 29.9262 50.3812 27.7379 50.3812 23.3615V13.169H47.8553V8.78031H50.3812V3.55167H55.7747V8.78031H60.5185V13.169H55.7778Z" fill="#2B375F"/>
<path d="M69.7407 1.68307V29.9263H64.3837V1.68307H69.7407Z" fill="#80C197"/>
<path d="M75.3842 5.3656C74.7588 4.76908 74.4476 4.02344 74.4476 3.13171C74.4476 2.24302 74.7588 1.49738 75.3842 0.897817C76.0096 0.301301 76.7936 0 77.7362 0C78.6789 0 79.4629 0.298258 80.0883 0.897817C80.7136 1.49738 81.0248 2.23998 81.0248 3.13171C81.0248 4.02344 80.7106 4.76604 80.0883 5.3656C79.4629 5.96211 78.6789 6.26342 77.7362 6.26342C76.7936 6.26342 76.0096 5.96211 75.3842 5.3656ZM80.375 8.78035V29.9262H75.0181V8.78035H80.375Z" fill="#80C197"/>
<path d="M95.372 13.169H91.6594V29.9232H86.2262V13.169H83.8162V8.78037H86.2262V7.71212C86.2262 5.11606 86.9644 3.20782 88.444 1.98739C89.9235 0.76697 92.1566 0.194802 95.1401 0.270888V4.77519C93.8405 4.75084 92.9345 4.96693 92.4251 5.42345C91.9156 5.87996 91.6594 6.70778 91.6594 7.90386V8.78037H95.372V13.169Z" fill="#80C197"/>
<path d="M118.404 20.9572H102.91C103.038 22.4851 103.572 23.6811 104.518 24.5455C105.46 25.4098 106.623 25.842 107.999 25.842C109.988 25.842 111.403 24.9898 112.245 23.2855H118.023C117.41 25.3216 116.238 26.9954 114.503 28.3041C112.767 29.6159 110.637 30.2702 108.115 30.2702C106.074 30.2702 104.243 29.8198 102.623 28.9159C101.004 28.012 99.7405 26.7337 98.8345 25.0811C97.9285 23.4285 97.477 21.5203 97.477 19.3564C97.477 17.1682 97.9224 15.2477 98.8162 13.5921C99.707 11.9395 100.958 10.6673 102.565 9.77562C104.173 8.88389 106.022 8.43954 108.111 8.43954C110.125 8.43954 111.931 8.87171 113.526 9.73605C115.119 10.6004 116.357 11.8299 117.236 13.4186C118.115 15.0104 118.557 16.8334 118.557 18.8968C118.557 19.6577 118.505 20.3455 118.404 20.9572ZM113.008 17.369C112.983 15.9964 112.486 14.8947 111.516 14.0669C110.546 13.2391 109.359 12.8252 107.959 12.8252C106.632 12.8252 105.515 13.2269 104.612 14.0273C103.706 14.8277 103.151 15.9416 102.947 17.366H113.008V17.369Z" fill="#80C197"/>
</svg>
